<?xml version="1.0" encoding="utf-8"?>
<!-- Generator: Adobe Illustrator 23.0.2, SVG Export Plug-In . SVG Version: 6.00 Build 0)  -->
<svg version="1.1" id="Réteg_1" xmlns="http://www.w3.org/2000/svg" xmlns:xlink="http://www.w3.org/1999/xlink" x="0px" y="0px"
	 viewBox="0 0 342.3 172.8" style="enable-background:new 0 0 342.3 172.8;" xml:space="preserve">
<style type="text/css">
	.st0{fill:#FF476D;}
	.st1{fill:#FFFFFF;}
</style>
<path class="st0" d="M255.9,172.8H86.4C38.7,172.8,0,134.1,0,86.4l0,0C0,38.7,38.7,0,86.4,0h169.5c47.7,0,86.4,38.7,86.4,86.4l0,0
	C342.3,134.1,303.6,172.8,255.9,172.8z"/>
<g>
	<g>
		<path class="st1" d="M157.4,109.8v-40l-7.6,1.3v-6.6l15.5-2.4v47.7H157.4z"/>
		<path class="st1" d="M191.4,110.6c-12.3,0-18.4-4.5-18.4-13.4c0-2.7,0.7-5.1,2.2-7.2c1.4-2.1,3.5-3.6,6.2-4.5
			c-2.4-0.9-4.2-2.3-5.3-4.1c-1.1-1.8-1.7-3.8-1.7-5.9c0-4,1.4-7.3,4.2-9.7c2.8-2.5,7.1-3.7,12.9-3.7c5.9,0,10.3,1.2,13,3.7
			s4.1,5.7,4.1,9.7c0,2.2-0.5,4.3-1.6,6.2c-1.1,1.9-3,3.4-5.7,4.4c3,0.9,5.2,2.2,6.6,4.1c1.4,1.8,2,4.1,2,6.9
			C209.8,106.1,203.7,110.6,191.4,110.6z M191.4,104.4c3.6,0,6.4-0.6,8.2-1.8c1.8-1.2,2.7-3.1,2.7-5.6c0-2.3-0.6-4-1.9-5
			s-3.3-1.8-5.9-2.4l-6-1.2c-2.5,0.5-4.5,1.4-5.9,2.7c-1.5,1.2-2.2,3.2-2.2,5.8s0.9,4.5,2.8,5.7
			C185.1,103.8,187.8,104.4,191.4,104.4z M193.4,83.7c2.7-0.7,4.6-1.6,5.9-2.8c1.2-1.2,1.9-2.9,1.9-5.3c0-4.9-3.2-7.3-9.7-7.3
			c-3.2,0-5.6,0.6-7.2,1.8c-1.7,1.2-2.5,3-2.5,5.5c0,3.8,2.2,6.2,6.5,7L193.4,83.7z"/>
		<path class="st1" d="M223.7,109.8v-40l-7.6,1.3v-6.6l15.5-2.4v47.7H223.7z"/>
		<path class="st1" d="M239.4,109.8v-3.9c1.3-3,3-5.6,5.3-8s4.7-4.7,7.3-6.9c1.9-1.7,3.6-3.2,4.9-4.3c1.3-1.2,2.3-2.3,3-3.2
			c0.7-1,1.2-2,1.5-3s0.4-2.3,0.4-3.7c0-2.5-0.7-4.5-2.2-5.8s-3.9-2-7.3-2c-1.9,0-3.7,0.2-5.7,0.6c-1.9,0.4-3.8,0.9-5.5,1.6v-7
			c1.7-0.6,3.7-1.1,6.1-1.4c2.3-0.4,4.5-0.5,6.6-0.5c5.3,0,9.2,1.3,11.9,3.9c2.7,2.6,4,6.1,4,10.6c0,2.2-0.4,4.2-1.2,5.9
			c-0.8,1.7-1.9,3.4-3.2,4.9c-1.4,1.5-2.9,3.1-4.7,4.7c-2.2,1.9-4.3,3.8-6.3,5.7c-2,1.8-3.6,3.8-4.8,5.9h20.8v6.1h-30.9L239.4,109.8
			L239.4,109.8z"/>
	</g>
	<path class="st1" d="M118.8,114.7c-0.3,0-0.5,0-0.7,0c-8.3-0.9-16.4-3.8-23.4-8.3c-6.5-4.1-12.1-9.8-16.3-16.3
		c-4.5-7-7.4-15.1-8.3-23.5c-0.4-4.3,2.8-8.2,7.1-8.6c0.2,0,0.5,0,0.7,0h7.7h0.1c3.9,0,7.2,2.9,7.7,6.7c0.3,2.3,0.9,4.5,1.7,6.7
		c1.1,2.8,0.4,6.1-1.8,8.3l-1.8,1.8c3,4.7,7,8.7,11.7,11.7l1.8-1.8c2.2-2.2,5.4-2.8,8.3-1.8c2.1,0.8,4.4,1.4,6.6,1.7
		c4,0.6,6.8,4,6.8,7.9v7.7C126.6,111.1,123.1,114.7,118.8,114.7z M85.6,63.4L85.6,63.4h-7.8c-0.1,0-0.2,0-0.2,0
		c-1.3,0.1-2.3,1.3-2.2,2.7c0.8,7.5,3.4,14.8,7.5,21.1c3.7,5.9,8.8,10.9,14.6,14.6c6.3,4.1,13.6,6.7,21.1,7.5c0,0,0.1,0,0.2,0
		c1.3,0,2.4-1.1,2.4-2.5v-7.7c0,0,0,0,0-0.1c0-1.3-0.9-2.3-2.1-2.5c-2.6-0.3-5.3-1-7.8-1.9c-0.9-0.3-1.9-0.1-2.6,0.6l-3.3,3.3
		c-0.9,0.9-2.2,1-3.2,0.4c-6.9-3.9-12.6-9.6-16.5-16.5c-0.6-1.1-0.4-2.4,0.4-3.2l3.3-3.3c0.7-0.7,0.9-1.7,0.5-2.6
		c-0.9-2.5-1.6-5.2-2-7.8C87.9,64.3,86.8,63.4,85.6,63.4z"/>
</g>
</svg>
