<?xml version="1.0" encoding="utf-8"?>
<!-- Generator: Adobe Illustrator 23.0.2, SVG Export Plug-In . SVG Version: 6.00 Build 0)  -->
<svg version="1.1" id="Réteg_1" xmlns="http://www.w3.org/2000/svg" xmlns:xlink="http://www.w3.org/1999/xlink" x="0px" y="0px"
	 viewBox="0 0 376.6 172.8" style="enable-background:new 0 0 376.6 172.8;" xml:space="preserve">
<style type="text/css">
	.st0{fill:#4A90F7;}
	.st1{fill:#FFFFFF;}
</style>
<path class="st0" d="M290.2,172.8H86.4C38.7,172.8,0,134.1,0,86.4l0,0C0,38.7,38.7,0,86.4,0h203.8c47.7,0,86.4,38.7,86.4,86.4l0,0
	C376.6,134.1,337.9,172.8,290.2,172.8z"/>
<g>
	<g>
		<path class="st1" d="M128.5,109.8v-47h32.8V69h-24.8v14.2h22.1v6.1h-22.1v14.3h24.8v6.1h-32.8V109.8z"/>
		<path class="st1" d="M168.7,109.8v-47h32.8V69h-24.8v14.2h22v6.1h-22.1v14.3h24.8v6.1h-32.7V109.8z"/>
		<path class="st1" d="M221.6,110.6c-6.1,0-11-0.8-14.7-2.3v-7c2.1,0.8,4.3,1.4,6.8,1.9c2.4,0.5,4.8,0.7,7.2,0.7
			c3.7,0,6.6-0.4,8.4-1.3c1.9-0.9,2.8-2.6,2.8-5.3c0-1.6-0.4-2.9-1.2-3.9s-2.1-1.8-3.9-2.5c-1.8-0.7-4.3-1.4-7.4-2.2
			c-5.1-1.3-8.6-3-10.7-5c-2-2-3.1-4.8-3.1-8.4c0-4.1,1.5-7.4,4.5-9.7c3-2.3,7.5-3.5,13.5-3.5c2.7,0,5.3,0.2,7.7,0.6
			s4.3,0.8,5.7,1.3v7c-3.7-1.4-7.8-2.1-12.3-2.1c-3.5,0-6.2,0.5-8.2,1.4c-1.9,0.9-2.9,2.6-2.9,5c0,1.4,0.3,2.6,1,3.4
			c0.7,0.9,1.9,1.6,3.5,2.3c1.7,0.6,4,1.3,7,2.1c3.8,1,6.8,2.1,8.9,3.5c2.1,1.3,3.6,2.9,4.5,4.7c0.9,1.8,1.3,3.8,1.3,6
			c0,4.1-1.5,7.4-4.6,9.7C232.5,109.4,227.8,110.6,221.6,110.6z"/>
		<path class="st1" d="M244.2,109.8v-4.2l25.3-36.3h-24v-6.5h34.2v4.9l-25,36h25.4v6.1H244.2z"/>
		<path class="st1" d="M299.9,109.8V69h-15v-6.2h38V69h-15v40.8H299.9z"/>
	</g>
	<g>
		<path class="st1" d="M77.1,87.3c8.4,0,15.2-6.8,15.2-15.2s-6.8-15.2-15.2-15.2s-15.2,6.8-15.2,15.2C61.9,80.5,68.7,87.3,77.1,87.3
			z M67.9,72.2c0-5,4.1-9.1,9.1-9.1s9.1,4.1,9.1,9.1S82,81.3,77,81.3S67.9,77.2,67.9,72.2z"/>
		<path class="st1" d="M79.1,89.4h-4c-12.8,0-23.3,10.4-23.3,23.3c0,1.7,1.4,3,3,3h44.5c1.7,0,3-1.4,3-3
			C102.4,99.8,91.9,89.4,79.1,89.4z M96,109.6H58.1c1.4-8.2,8.5-14.2,16.9-14.2h4C87.5,95.4,94.6,101.5,96,109.6z"/>
	</g>
</g>
</svg>
