<svg version="1.2" xmlns="http://www.w3.org/2000/svg" viewBox="13.000000000000002 113.00000000000001 396 74.99999999999999" width="396" height="75"><defs><clipPath clipPathUnits="userSpaceOnUse" id="cp1"><path d="m26.82 122.76c-7.36 0-13.35 5.99-13.35 13.35v25.56c0 7.36 5.99 13.35 13.35 13.35h42.72c7.36 0 13.35-5.99 13.35-13.35v-14.65c-1.3 0.52-2.71 0.81-4.2 0.81-1.49 0-2.9-0.29-4.2-0.81v14.65c0 2.73-2.22 4.96-4.96 4.96h-42.71c-2.74 0-4.96-2.22-4.96-4.96v-25.56c0-2.73 2.22-4.96 4.96-4.96h31.82c-0.52-1.3-0.81-2.71-0.81-4.2 0-1.49 0.29-2.9 0.81-4.19z"/></clipPath><linearGradient id="P" gradientUnits="userSpaceOnUse"/><linearGradient id="g1" x2="1" href="#P" gradientTransform="matrix(35.093,-43.229,-44.515,-36.138,23.337,179.374)"><stop stop-color="#4a90f7"/><stop offset="1" stop-color="#ff476d"/></linearGradient><clipPath clipPathUnits="userSpaceOnUse" id="cp2"><path d="m74.5 117.42v5.34h-5.34c-2.32 0-4.2 1.88-4.2 4.19 0 2.31 1.88 4.2 4.2 4.2h5.34v5.34c0 2.32 1.88 4.2 4.2 4.2 2.32 0 4.2-1.88 4.2-4.2v-5.34h5.34c2.32 0 4.2-1.88 4.2-4.2 0-2.32-1.88-4.19-4.2-4.19h-5.34v-5.34c0-2.32-1.88-4.2-4.2-4.2-2.32 0-4.2 1.88-4.2 4.2z"/></clipPath><linearGradient id="g2" x2="1" href="#P" gradientTransform="matrix(35.093,-43.229,-43.229,-35.093,30.989,185.59)"><stop stop-color="#4a90f7"/><stop offset="1" stop-color="#ff476d"/></linearGradient><clipPath clipPathUnits="userSpaceOnUse" id="cp3"><path d="m31.02 179.83c-2.32 0-4.2 1.88-4.2 4.2 0 2.32 1.88 4.19 4.2 4.19h34.33c2.32 0 4.19-1.88 4.19-4.19 0-2.31-1.88-4.2-4.19-4.2z"/></clipPath><linearGradient id="g3" x2="1" href="#P" gradientTransform="matrix(35.093,-43.229,-49.718,-40.362,40.526,193.34)"><stop stop-color="#4a90f7"/><stop offset="1" stop-color="#ff476d"/></linearGradient><clipPath clipPathUnits="userSpaceOnUse" id="cp4"><path d="m26.82 148.32c0 7.36 5.99 13.35 13.35 13.35 2.32 0 4.2-1.88 4.2-4.2 0-2.32-1.88-4.19-4.2-4.19-2.73 0-4.96-2.23-4.96-4.96 0-2.32-1.88-4.2-4.2-4.2-2.32 0-4.2 1.88-4.19 4.2z"/></clipPath><linearGradient id="g4" x2="1" href="#P" gradientTransform="matrix(35.093,-43.229,-43.229,-35.093,17.71,174.787)"><stop stop-color="#4a90f7"/><stop offset="1" stop-color="#ff476d"/></linearGradient><clipPath clipPathUnits="userSpaceOnUse" id="cp5"><path d="m13.47 113.22h395.12v75h-395.12z"/></clipPath></defs><style>.a{fill:url(#g1)}.b{fill:url(#g2)}.c{fill:url(#g3)}.d{fill:url(#g4)}.e{fill:#fff}</style><g clip-path="url(#cp1)"><path class="a" d="m-12.1 154.3l53.1-65.5 67.5 54.7-53.2 65.5z"/></g><g clip-path="url(#cp2)"><path class="b" d="m51.5 129.8l24.4-30 30 24.3-24.4 30z"/></g><g clip-path="url(#cp3)"><path class="c" d="m22.7 184.9l21.1-26 29.9 24.3-21.1 25.9z"/></g><g clip-path="url(#cp4)"><path class="d" d="m18.2 154.7l15.6-19.2 19.2 15.6-15.6 19.1z"/></g><g clip-path="url(#cp5)"><path class="e" d="m120.6 137.1h-17.4c-0.4 0-0.7 0.3-0.7 0.7v22.9c0 0.4 0.3 0.8 0.7 0.8h17.4c0.4 0 0.7-0.4 0.7-0.8v-5.1c0-0.4-0.3-0.7-0.7-0.7h-10v-2.3h8.7c0.4 0 0.7-0.3 0.7-0.7v-5.2c0-0.4-0.3-0.8-0.7-0.8h-8.7v-2.3h10c0.4 0 0.7-0.3 0.7-0.7v-5.1c0-0.4-0.3-0.7-0.7-0.7z"/><path class="e" d="m146.6 146.7h-10.2c-0.4 0-0.7 0.3-0.7 0.7v4.2c0 0.4 0.3 0.7 0.7 0.7h3.9v2.1q-0.5 0.1-1 0.2-0.7 0.1-1.6 0.1-2.5 0-3.8-1.2-1.2-1.2-1.2-4 0-3.1 1.4-4.4 1.5-1.3 4.5-1.3 1.7 0 3.3 0.2 1.6 0.2 3.1 0.8c0.2 0.1 0.5 0.1 0.7-0.1 0.2-0.1 0.3-0.3 0.3-0.6v-5.7c0-0.3-0.2-0.6-0.5-0.7q-1.6-0.5-3.4-0.8-1.8-0.2-4-0.2c-4.4 0-7.8 1.1-10.1 3.3-2.4 2.2-3.6 5.4-3.6 9.4 0 4.1 1.2 7 3.4 9.2 2.3 2.1 5.6 3.2 9.9 3.2q3.3 0 5.5-0.7 2.3-0.7 3.7-1.5c0.2-0.2 0.4-0.4 0.4-0.6v-11.6c0-0.4-0.3-0.7-0.7-0.7"/><path class="e" d="m170 137.1h-17.4c-0.4 0-0.7 0.3-0.7 0.7v22.9c0 0.4 0.3 0.8 0.7 0.8h17.4c0.4 0 0.7-0.4 0.7-0.8v-5.1c0-0.4-0.3-0.7-0.7-0.7h-10v-2.3h8.7c0.4 0 0.7-0.3 0.7-0.7v-5.2c0-0.4-0.3-0.8-0.7-0.8h-8.7v-2.3h10c0.4 0 0.7-0.3 0.7-0.7v-5.1c0-0.4-0.3-0.7-0.7-0.7z"/><path class="e" d="m158.2 135.2h4.9c0.3 0 0.5-0.2 0.7-0.4l3.4-7.4c0.1-0.2 0.1-0.4-0.1-0.6-0.1-0.3-0.3-0.4-0.6-0.4h-5.2c-0.3 0-0.5 0.2-0.6 0.5l-3.2 7.3c-0.1 0.2 0 0.5 0.1 0.7 0.1 0.2 0.4 0.3 0.6 0.3z"/><path class="e" d="m190.9 147.9c-1.1-0.8-2.6-1.4-4.6-1.9q-2.3-0.7-3.2-1.1c-0.5-0.2-0.6-0.4-0.6-0.6 0-0.3 0.1-0.5 0.6-0.6q1-0.2 2.5-0.2 1.3 0 2.8 0.2 1.4 0.3 3 1c0.3 0 0.5 0 0.7-0.1 0.2-0.1 0.3-0.4 0.3-0.6v-5.6c0-0.3-0.2-0.6-0.5-0.6q-1.3-0.4-3.3-0.8-2.1-0.3-4-0.3c-3.3 0-5.9 0.6-7.6 1.9-1.8 1.3-2.7 3.2-2.7 5.7q0 2 0.6 3.4 0.7 1.5 2.2 2.5 1.5 1 3.9 1.8 1.7 0.5 2.8 0.8c0.8 0.3 1.2 0.5 1.4 0.7 0.1 0.1 0.2 0.3 0.2 0.6 0 0.5-0.2 0.7-0.4 0.7q-0.8 0.3-2.4 0.3-1.7 0-3.6-0.4-1.8-0.5-3.4-1.2c-0.2-0.1-0.5-0.1-0.7 0-0.2 0.2-0.3 0.4-0.3 0.6v5.6c0 0.3 0.2 0.5 0.4 0.6q1.6 0.7 3.7 1.1 2.2 0.4 4.5 0.4c3.5 0 6.1-0.7 7.8-2q2.7-2.2 2.7-5.6 0-2-0.6-3.5-0.6-1.6-2.2-2.8"/><path class="e" d="m216.6 154.9h-8.8l9.1-13.2q0.2-0.2 0.2-0.4v-3.5c0-0.4-0.3-0.7-0.7-0.7h-18.3c-0.4 0-0.7 0.3-0.7 0.7v5.1c0 0.4 0.3 0.7 0.7 0.7h8.1l-9.2 13.4q-0.1 0.2-0.1 0.4v3.3c0 0.4 0.3 0.7 0.7 0.7h19c0.4 0 0.7-0.3 0.7-0.7v-5.1c0-0.4-0.3-0.7-0.7-0.7z"/><path class="e" d="m237.1 147.9c-1-0.8-2.6-1.4-4.5-1.9q-2.4-0.7-3.3-1.1c-0.5-0.2-0.5-0.4-0.5-0.6 0-0.3 0-0.5 0.6-0.6q1-0.2 2.5-0.2 1.3 0 2.7 0.2 1.5 0.3 3.1 1c0.2 0 0.5 0 0.7-0.1 0.2-0.1 0.3-0.4 0.3-0.6v-5.6c0-0.3-0.2-0.6-0.5-0.6q-1.3-0.4-3.4-0.8-2-0.3-4-0.3c-3.3 0-5.8 0.6-7.6 1.9-1.8 1.3-2.7 3.2-2.7 5.7q0 2 0.7 3.4 0.7 1.5 2.2 2.5 1.4 1 3.8 1.8 1.8 0.5 2.9 0.8c0.8 0.3 1.1 0.5 1.3 0.7 0.2 0.1 0.3 0.3 0.3 0.6 0 0.5-0.2 0.7-0.4 0.7q-0.8 0.3-2.5 0.3-1.6 0-3.5-0.4-1.9-0.5-3.4-1.2c-0.3-0.1-0.5-0.1-0.7 0-0.2 0.2-0.3 0.4-0.3 0.6v5.6c0 0.3 0.1 0.5 0.4 0.6q1.5 0.7 3.7 1.1 2.1 0.4 4.5 0.4c3.4 0 6-0.7 7.8-2q2.7-2.2 2.7-5.6 0-2-0.6-3.5-0.6-1.6-2.3-2.8"/><path class="e" d="m250.5 135.2h4.9c0.3 0 0.5-0.2 0.6-0.4l3.5-7.4c0.1-0.2 0.1-0.4-0.1-0.6-0.1-0.3-0.3-0.4-0.6-0.4h-5.2c-0.3 0-0.5 0.2-0.6 0.5l-3.2 7.3c-0.1 0.2-0.1 0.5 0.1 0.7 0.1 0.2 0.3 0.3 0.6 0.3z"/><path class="e" d="m262.3 137.1h-17.4c-0.4 0-0.7 0.3-0.7 0.7v22.9c0 0.4 0.3 0.8 0.7 0.8h17.4c0.4 0 0.7-0.4 0.7-0.8v-5.1c0-0.4-0.3-0.7-0.7-0.7h-10v-2.3h8.7c0.4 0 0.7-0.3 0.7-0.7v-5.2c0-0.4-0.3-0.8-0.7-0.8h-8.7v-2.3h10c0.4 0 0.7-0.3 0.7-0.7v-5.1c0-0.4-0.3-0.7-0.7-0.7z"/><path class="e" d="m288.3 146.7h-10.2c-0.4 0-0.7 0.3-0.7 0.7v4.2c0 0.4 0.3 0.7 0.7 0.7h3.8v2.1q-0.4 0.1-0.9 0.2-0.7 0.1-1.6 0.1-2.6 0-3.8-1.2-1.2-1.2-1.2-4 0-3.1 1.4-4.4c1-0.8 2.5-1.3 4.5-1.3q1.7 0 3.3 0.2 1.6 0.2 3.1 0.8c0.2 0.1 0.5 0.1 0.7-0.1 0.2-0.1 0.3-0.3 0.3-0.6v-5.7c0-0.3-0.2-0.6-0.5-0.7q-1.6-0.5-3.4-0.8-1.8-0.2-4-0.2c-4.4 0-7.8 1.1-10.2 3.3-2.3 2.2-3.5 5.4-3.5 9.4 0 4.1 1.2 7 3.4 9.2 2.3 2.1 5.6 3.2 9.9 3.2q3.2 0 5.5-0.7 2.3-0.7 3.7-1.5c0.2-0.2 0.4-0.4 0.4-0.6v-11.6c0-0.4-0.4-0.7-0.7-0.7"/><path class="e" d="m313.4 137.1h-3c-0.3 0-0.6 0.2-0.7 0.4l-6.7 18.2-6.8-18.2c-0.1-0.2-0.3-0.4-0.6-0.4h-3.1c-0.2 0-0.4 0.1-0.6 0.3-0.1 0.2-0.1 0.4 0 0.6l8.7 23c0.1 0.3 0.4 0.5 0.7 0.5h3.4c0.3 0 0.6-0.2 0.7-0.5l8.7-23q0.1-0.3-0.1-0.6c-0.1-0.2-0.4-0.3-0.6-0.3z"/><path class="e" d="m327.2 136.7c-3.8 0-6.6 1-8.5 3.1-1.9 2-2.8 5.2-2.8 9.5 0 4.2 0.9 7.4 2.8 9.5 1.9 2 4.7 3 8.5 3 3.8 0 6.7-1 8.5-3 1.9-2.1 2.8-5.3 2.8-9.5 0-4.3-0.9-7.5-2.8-9.5-1.8-2.1-4.7-3.1-8.5-3.1zm4 20.4q-1.6 0.8-4 0.8-2.4 0-4-0.8c-1-0.5-1.7-1.4-2.2-2.6-0.5-1.3-0.7-3-0.7-5.2 0-2.2 0.2-4 0.7-5.3 0.5-1.2 1.3-2 2.2-2.6q1.6-0.8 4-0.8 2.4 0 4 0.8 1.4 0.8 2.2 2.6 0.7 2 0.7 5.3c0 2.2-0.2 3.9-0.7 5.2-0.5 1.2-1.3 2.1-2.2 2.6z"/><path class="e" d="m361.9 137.1h-2.9c-0.4 0-0.7 0.3-0.7 0.7v16.2l-11.8-16.6c-0.2-0.2-0.4-0.4-0.6-0.4h-2.7c-0.4 0-0.7 0.4-0.7 0.8v22.9c0 0.4 0.3 0.7 0.7 0.7h3c0.3 0 0.7-0.3 0.7-0.7v-16.2l11.7 16.6c0.2 0.2 0.4 0.3 0.6 0.3h2.7c0.4 0 0.7-0.3 0.7-0.7v-22.9c0-0.4-0.3-0.8-0.7-0.8"/><path class="e" d="m379.7 137.5c-0.1-0.3-0.4-0.4-0.7-0.4h-3.4c-0.3 0-0.6 0.1-0.7 0.4l-8.7 23q-0.1 0.3 0.1 0.7c0.1 0.1 0.3 0.3 0.6 0.3h3c0.3 0 0.6-0.2 0.7-0.5l2.2-5.8h9l2.3 5.8c0.1 0.3 0.3 0.5 0.6 0.5h3c0.3 0 0.5-0.2 0.6-0.3 0.2-0.2 0.2-0.5 0.1-0.7l-8.7-23zm1.1 13.9h-6.9l3.4-9.1z"/><path class="e" d="m407.9 157.7h-11.5v-19.9c0-0.4-0.4-0.7-0.7-0.7h-3c-0.4 0-0.7 0.3-0.7 0.7v22.9c0 0.4 0.3 0.8 0.7 0.8h15.2c0.4 0 0.7-0.4 0.7-0.8v-2.2c0-0.4-0.3-0.7-0.7-0.7"/></g></svg>