<svg version="1.2" xmlns="http://www.w3.org/2000/svg" viewBox="10.999999999999979 110.99999999999999 396.00000000000006 75.00000000000001" width="398" height="76"><defs><clipPath clipPathUnits="userSpaceOnUse" id="cp1"><path d="m12.03 111.46h395.12v75h-395.12z"/></clipPath></defs><style>.a{fill:#fff}</style><g clip-path="url(#cp1)"><path class="a" d="m73.1 145.3v14.6c0 2.7-2.3 5-5 5h-42.7c-2.7 0-5-2.3-5-5v-25.6c0-2.7 2.2-4.9 5-4.9h31.8c-0.5-1.3-0.8-2.7-0.8-4.2 0-1.5 0.3-2.9 0.8-4.2h-31.8c-7.4 0-13.4 6-13.4 13.3v25.6c0 7.4 6 13.3 13.4 13.3h42.7c7.4 0 13.3-5.9 13.3-13.3v-14.7c-1.3 0.6-2.7 0.8-4.2 0.8-1.4 0-2.9-0.2-4.2-0.8"/><path class="a" d="m86.8 121h-5.3v-5.4c0-2.3-1.9-4.2-4.2-4.2-2.4 0-4.3 1.9-4.3 4.2v5.4h-5.3c-2.3 0-4.2 1.9-4.2 4.2 0 2.3 1.9 4.2 4.2 4.2h5.3v5.3c0 2.3 1.9 4.2 4.3 4.2 2.3 0 4.2-1.9 4.2-4.2v-5.3h5.3c2.3 0 4.2-1.9 4.2-4.2 0-2.3-1.9-4.2-4.2-4.2z"/><path class="a" d="m63.9 186.5h-34.3c-2.4 0-4.2-1.9-4.2-4.2 0-2.4 1.8-4.2 4.2-4.2h34.3c2.3 0 4.2 1.9 4.2 4.2 0 2.3-1.9 4.2-4.2 4.2z"/><path class="a" d="m38.7 159.9c-7.3 0-13.3-6-13.3-13.3 0-2.4 1.9-4.2 4.2-4.2 2.3 0 4.2 1.8 4.2 4.2 0 2.7 2.2 4.9 4.9 4.9 2.4 0 4.2 1.9 4.2 4.2 0 2.3-1.8 4.2-4.2 4.2z"/><path class="a" d="m119.2 135.3h-17.4c-0.4 0-0.7 0.3-0.7 0.7v23c0 0.4 0.3 0.7 0.7 0.7h17.4c0.4 0 0.7-0.3 0.7-0.7v-5.2c0-0.4-0.3-0.7-0.7-0.7h-10v-2.3h8.7c0.3 0 0.7-0.3 0.7-0.7v-5.2c0-0.4-0.4-0.7-0.7-0.7h-8.7v-2.4h10c0.4 0 0.7-0.3 0.7-0.7v-5.1c0-0.4-0.3-0.7-0.7-0.7z"/><path class="a" d="m145.1 145h-10.1c-0.4 0-0.8 0.3-0.8 0.7v4.1c0 0.4 0.4 0.7 0.8 0.7h3.8v2.1q-0.5 0.1-0.9 0.2-0.8 0.1-1.7 0.1-2.5 0-3.7-1.2-1.3-1.2-1.3-4 0-3 1.5-4.3c0.9-0.9 2.4-1.3 4.5-1.3q1.7 0 3.3 0.2 1.6 0.2 3.1 0.8c0.2 0 0.4 0 0.6-0.1 0.2-0.1 0.3-0.4 0.3-0.6v-5.7c0-0.4-0.2-0.6-0.5-0.7q-1.6-0.5-3.3-0.8-1.8-0.3-4-0.3c-4.4 0-7.9 1.2-10.2 3.4-2.3 2.2-3.5 5.4-3.5 9.4 0 4 1.1 7 3.4 9.1 2.3 2.2 5.6 3.2 9.8 3.2q3.3 0 5.6-0.6 2.3-0.7 3.7-1.6c0.2-0.1 0.3-0.3 0.3-0.6v-11.5c0-0.4-0.3-0.8-0.7-0.8"/><path class="a" d="m168.6 135.3h-17.4c-0.4 0-0.7 0.3-0.7 0.7v23c0 0.4 0.3 0.7 0.7 0.7h17.4c0.4 0 0.7-0.3 0.7-0.7v-5.2c0-0.4-0.3-0.7-0.7-0.7h-10v-2.3h8.7c0.4 0 0.7-0.3 0.7-0.7v-5.2c0-0.4-0.3-0.7-0.7-0.7h-8.7v-2.4h10c0.4 0 0.7-0.3 0.7-0.7v-5.1c0-0.4-0.3-0.7-0.7-0.7z"/><path class="a" d="m156.7 133.4h5c0.2 0 0.5-0.1 0.6-0.4l3.4-7.3c0.1-0.2 0.1-0.5 0-0.7-0.1-0.2-0.4-0.3-0.6-0.3h-5.2c-0.3 0-0.6 0.1-0.7 0.4l-3.1 7.3c-0.1 0.3-0.1 0.5 0 0.7 0.2 0.2 0.4 0.3 0.6 0.3z"/><path class="a" d="m189.4 146.1q-1.6-1.1-4.5-1.9-2.4-0.6-3.3-1c-0.5-0.2-0.5-0.5-0.5-0.7 0-0.2 0-0.4 0.5-0.6q1.1-0.2 2.6-0.2 1.3 0 2.7 0.3 1.5 0.3 3.1 0.9c0.2 0.1 0.5 0.1 0.7-0.1 0.2-0.1 0.3-0.3 0.3-0.6v-5.5c0-0.3-0.2-0.6-0.5-0.7q-1.3-0.4-3.4-0.7-2-0.4-4-0.4c-3.3 0-5.8 0.7-7.6 1.9-1.8 1.3-2.7 3.3-2.7 5.8q0 2 0.7 3.4 0.7 1.5 2.2 2.5 1.4 0.9 3.8 1.7 1.8 0.5 2.9 0.9c0.8 0.2 1.1 0.5 1.3 0.6 0.2 0.1 0.3 0.3 0.3 0.7 0 0.5-0.2 0.6-0.4 0.7q-0.8 0.2-2.5 0.2-1.6 0-3.5-0.4-1.9-0.5-3.4-1.2c-0.3-0.1-0.5-0.1-0.7 0.1-0.2 0.1-0.3 0.3-0.3 0.6v5.5c0 0.3 0.1 0.5 0.4 0.7q1.5 0.7 3.7 1.1 2.1 0.4 4.5 0.4c3.4 0 6-0.7 7.8-2.1q2.7-2.1 2.7-5.6 0-1.9-0.6-3.5-0.6-1.6-2.3-2.8"/><path class="a" d="m215.1 153.1h-8.7l9.1-13.2q0.1-0.2 0.1-0.4v-3.5c0-0.4-0.3-0.7-0.7-0.7h-18.2c-0.4 0-0.8 0.3-0.8 0.7v5.1c0 0.4 0.4 0.8 0.8 0.8h8.1l-9.3 13.3q-0.1 0.2-0.1 0.4v3.4c0 0.4 0.3 0.7 0.7 0.7h19c0.4 0 0.7-0.3 0.7-0.7v-5.2c0-0.4-0.3-0.7-0.7-0.7"/><path class="a" d="m235.7 146.1c-1.1-0.7-2.6-1.4-4.5-1.9q-2.4-0.6-3.3-1c-0.5-0.2-0.5-0.5-0.5-0.7 0-0.2 0-0.4 0.5-0.6q1-0.2 2.5-0.2 1.3 0 2.8 0.3 1.4 0.3 3.1 0.9c0.2 0.1 0.4 0.1 0.6-0.1 0.2-0.1 0.3-0.3 0.3-0.6v-5.5c0-0.3-0.2-0.6-0.5-0.7q-1.3-0.4-3.3-0.7-2.1-0.4-4-0.4c-3.3 0-5.9 0.7-7.6 1.9-1.8 1.3-2.7 3.3-2.7 5.8q0 2 0.6 3.4 0.7 1.5 2.2 2.5 1.5 0.9 3.9 1.7 1.7 0.5 2.8 0.9c0.8 0.2 1.2 0.5 1.4 0.6 0.1 0.1 0.2 0.3 0.2 0.7 0 0.5-0.2 0.6-0.4 0.7q-0.8 0.2-2.4 0.2-1.7 0-3.5-0.4-1.9-0.5-3.5-1.2c-0.2-0.1-0.5-0.1-0.7 0.1-0.2 0.1-0.3 0.3-0.3 0.6v5.5c0 0.3 0.2 0.5 0.4 0.7q1.6 0.7 3.7 1.1 2.1 0.4 4.5 0.4c3.5 0 6.1-0.7 7.8-2.1q2.7-2.1 2.7-5.6 0-1.9-0.6-3.5-0.6-1.6-2.2-2.8z"/><path class="a" d="m249 133.4h4.9c0.3 0 0.6-0.1 0.7-0.4l3.4-7.3c0.1-0.2 0.1-0.5 0-0.7-0.2-0.2-0.4-0.3-0.6-0.3h-5.2c-0.3 0-0.6 0.1-0.7 0.4l-3.1 7.3c-0.1 0.3-0.1 0.5 0 0.7 0.2 0.2 0.4 0.3 0.6 0.3z"/><path class="a" d="m260.9 135.3h-17.4c-0.4 0-0.7 0.3-0.7 0.7v23c0 0.4 0.3 0.7 0.7 0.7h17.4c0.4 0 0.7-0.3 0.7-0.7v-5.2c0-0.4-0.3-0.7-0.7-0.7h-10v-2.3h8.7c0.3 0 0.7-0.3 0.7-0.7v-5.2c0-0.4-0.4-0.7-0.7-0.7h-8.7v-2.4h10c0.4 0 0.7-0.3 0.7-0.7v-5.1c0-0.4-0.3-0.7-0.7-0.7z"/><path class="a" d="m286.8 145h-10.2c-0.3 0-0.7 0.3-0.7 0.7v4.1c0 0.4 0.4 0.7 0.7 0.7h3.9v2.1q-0.5 0.1-0.9 0.2-0.8 0.1-1.7 0.1-2.5 0-3.7-1.2-1.3-1.2-1.3-4c0-2 0.5-3.5 1.5-4.3 0.9-0.9 2.4-1.3 4.5-1.3q1.7 0 3.3 0.2 1.6 0.2 3.1 0.8c0.2 0.1 0.4 0 0.6-0.1 0.2-0.1 0.3-0.4 0.3-0.6v-5.7c0-0.4-0.2-0.6-0.5-0.7q-1.6-0.5-3.3-0.8-1.8-0.3-4-0.3c-4.4 0-7.9 1.2-10.2 3.4-2.4 2.2-3.5 5.4-3.5 9.4 0 4 1.1 7 3.4 9.1 2.3 2.2 5.6 3.2 9.8 3.2q3.3 0 5.6-0.6 2.3-0.7 3.7-1.6c0.2-0.1 0.3-0.3 0.3-0.6v-11.5c0-0.4-0.3-0.8-0.7-0.8"/><path class="a" d="m311.9 135.3h-3c-0.3 0-0.5 0.2-0.6 0.5l-6.8 18.2-6.7-18.2c-0.1-0.3-0.4-0.5-0.7-0.5h-3c-0.3 0-0.5 0.1-0.6 0.3-0.1 0.2-0.2 0.4-0.1 0.7l8.8 22.9c0.1 0.3 0.3 0.5 0.6 0.5h3.4c0.3 0 0.6-0.2 0.7-0.5l8.7-22.9c0.1-0.3 0.1-0.5-0.1-0.7-0.1-0.2-0.3-0.3-0.5-0.3z"/><path class="a" d="m325.8 134.9c-3.8 0-6.7 1.1-8.6 3.1-1.8 2-2.8 5.2-2.8 9.5 0 4.3 1 7.5 2.8 9.5 1.9 2 4.8 3.1 8.6 3.1 3.7 0 6.6-1.1 8.5-3.1 1.8-2 2.8-5.2 2.8-9.5 0-4.3-1-7.5-2.8-9.5-1.9-2-4.7-3.1-8.5-3.1zm3.9 20.4q-1.5 0.8-3.9 0.8-2.5 0-4-0.8c-1-0.5-1.7-1.4-2.2-2.6-0.5-1.2-0.8-3-0.8-5.2 0-2.2 0.3-4 0.8-5.3 0.5-1.2 1.2-2 2.2-2.5q1.5-0.8 4-0.8 2.4 0 3.9 0.8 1.5 0.7 2.2 2.5 0.8 2 0.8 5.3c0 2.2-0.2 4-0.8 5.2-0.5 1.2-1.2 2.1-2.2 2.6z"/><path class="a" d="m360.4 135.3h-2.9c-0.4 0-0.7 0.3-0.7 0.7v16.2l-11.8-16.6q-0.2-0.3-0.6-0.3h-2.6c-0.4 0-0.7 0.3-0.7 0.7v23c0 0.4 0.3 0.7 0.7 0.7h2.9c0.4 0 0.7-0.3 0.7-0.7v-16.2l11.8 16.6c0.1 0.2 0.3 0.3 0.6 0.3h2.7c0.3 0 0.7-0.3 0.7-0.7v-23c0-0.4-0.4-0.7-0.8-0.7z"/><path class="a" d="m378.3 135.8c-0.1-0.3-0.4-0.5-0.7-0.5h-3.4c-0.3 0-0.6 0.2-0.7 0.4l-8.7 23q-0.2 0.4 0 0.7c0.2 0.2 0.4 0.3 0.6 0.3h3.1c0.3 0 0.5-0.2 0.6-0.5l2.3-5.8h9l2.2 5.8c0.1 0.3 0.4 0.5 0.7 0.5h3c0.2 0 0.5-0.1 0.6-0.3 0.1-0.2 0.2-0.5 0.1-0.7l-8.7-23zm1 13.9h-6.9l3.5-9.1z"/><path class="a" d="m406.4 156h-11.5v-20c0-0.4-0.3-0.7-0.7-0.7h-2.9c-0.4 0-0.7 0.3-0.7 0.7v23c0 0.4 0.3 0.7 0.7 0.7h15.2c0.3 0 0.7-0.3 0.7-0.7v-2.3c0-0.4-0.4-0.7-0.7-0.7"/></g></svg>