<svg version="1.2" xmlns="http://www.w3.org/2000/svg" viewBox="12.000000000000007 3.000000000000002 191.00000000000003 51" width="192" height="51"><style>.a{fill:#fff}</style><path class="a" d="m90.3 54.3v-51h2.3v51.1h-2.3z"/><path class="a" d="m73 21h-12.9v-13.6c0-2.3-1.8-4.1-4.1-4.1h-9.4c3.7 1.2 7.4 5.1 7.7 12.1 0.2 4.2-2.6 2.6 2.8 10.4 1.8 2.6 2.2 3.9 0 5.1-1.5 0.8-2.1 0.7-1.2 1.9 1.4 1.9-1.9 2.1-0.8 2.5 1 0.4 1.1 2.2-0.2 2.9-3.1 1 5.1 8.5-7 9.6-3.4 0.3-4.5 0.8-4.2 6.3 0 0 0 0.1 0 0.2h12.2c2.3 0 4.1-1.8 4.1-4.1v-13.7h12.9c2.6 0 4.7-2.1 4.7-4.7v-6.2c0-2.6-2.1-4.7-4.7-4.7z"/><path class="a" d="m40.8 54.1c0 0 0 0.1 0 0.2h-11.3v-17.8h-17.5v-15.5h17.5v-17.7h11.4c6.3 1.1 10.6 5 10.9 12 0.2 4.2-2.7 3.1 2.5 10.9 1.6 2.4 2.1 3.4-0.3 4.2-1.6 0.5-2 0.9-1.2 2.3 1.3 2-1.9 2.3-0.8 2.7 1 0.4 1.4 1.8 0 2.5-2 1.7 4.8 7.4-6.2 7.6-3.3 0-5.9 3.4-5.2 8.7zm-18.4-28.5h-1.8v3.3l-2.4-3.3h-1.6v6.3h1.8v-3.3l2.4 3.3h1.5v-6.3zm6.7 0h-1.8v3.3l-2.4-3.3h-1.6v6.3h1.8v-3.3l2.4 3.3h1.6zm6.6 2.7h-2.8v1.2h1.2v0.9c-0.1 0-0.3 0-0.4 0-0.2 0-0.3 0-0.5 0-0.4 0-0.8-0.1-1.2-0.4-0.3-0.3-0.4-0.8-0.4-1.3 0-0.5 0.1-1 0.5-1.3 0.4-0.3 0.9-0.4 1.4-0.4q0.5 0 0.9 0c0.3 0 0.6 0.1 0.9 0.2v-1.6c-0.3 0-0.6-0.2-0.9-0.2-0.4 0-0.7 0-1.1 0q-1.5 0-2.7 0.9c-0.6 0.7-0.9 1.5-0.9 2.5q0 1.4 0.9 2.4c0.7 0.6 1.7 0.9 2.6 0.8 0.5 0 1 0 1.5-0.2 0.3 0 0.7-0.2 1-0.4v-3.2zm6.4-2.7h-1.9l-1.3 2.4-1.3-2.4h-1.9l2.3 4v2.3h1.8v-2.3zm6.5 6.4l-2.4-3.7 2.2-2.6h-2.1l-1.9 2.2v-2.2h-1.8v6.3h1.8v-1.8l0.6-0.7 1.6 2.6h2z"/><path class="a" d="m105.2 29.3v-18.9h4.7l7.1 10v-10h5.5v18.9h-4.7l-7.1-10v10z"/><path class="a" d="m125.8 29.3v-18.9h4.7l7.1 10v-10h5.5v18.9h-4.7l-7.1-10v10z"/><path class="a" d="m155.4 29.6c-3.4 0-5.9-0.8-7.7-2.5-1.8-1.7-2.6-4-2.6-7.1 0-3.1 0.9-5.6 2.7-7.3 1.8-1.7 4.5-2.6 8-2.6 3.5 0 2.2 0 3.2 0.2q1.4 0.1 2.7 0.6v4.7c-0.9-0.3-1.7-0.6-2.7-0.7-0.9-0.1-1.9-0.2-2.8-0.2-1.8 0-3.2 0.4-4.1 1.2-0.9 0.8-1.4 2.1-1.4 4 0 1.9 0.4 3 1.2 3.7 0.8 0.8 2 1.1 3.5 1.1 1.5 0 1 0 1.4-0.1 0.4 0 0.9-0.2 1.3-0.3v-2.8h-3.8v-3.4h8.4v9.5c-0.7 0.4-1.7 0.9-2.9 1.2-1.2 0.4-2.7 0.5-4.4 0.5z"/><path class="a" d="m170.2 29.3v-6.9l-6.8-12h5.7l3.8 7.1 3.8-7.1h5.7l-6.8 12v6.9h-5.5z"/><path class="a" d="m184.2 29.3v-18.9h5.5v6.7l5.7-6.7h6.3l-6.7 7.7 7.1 11.1h-5.9l-4.7-7.6-1.9 2.2v5.5h-5.5z"/><path class="a" d="m105.3 39.1v-4.1h1l1.6 2.2v-2.2h1.2v4.1h-1l-1.6-2.2v2.2z"/><path class="a" d="m110.4 39.1v-4.1h3.1v0.9h-1.9v0.7h1.7v0.9h-1.7v0.7h1.9v0.9z"/><path class="a" d="m114.6 39.1v-4.1h1.2l1 2.1 1-2.1h1.2v4.1h-1.2v-2.1l-0.7 1.4h-0.7l-0.7-1.4v2.1h-1.2z"/><path class="a" d="m120 39.1v-0.6l1.8-2.6h-1.7v-0.9h3.3v0.6l-1.8 2.6h1.8v0.9z"/><path class="a" d="m124.5 39.1v-4.1h3.1v0.9h-1.9v0.7h1.7v0.9h-1.7v0.7h1.9v0.9z"/><path class="a" d="m129.6 39.1v-3.2h-1.2v-0.9h3.5v0.9h-1.2v3.2h-1.2z"/><path class="a" d="m134.1 35v4.1h-1.2v-4.1z"/><path class="a" d="m137.5 39.1v-4.1h1l1.6 2.2v-2.2h1.2v4.1h-1l-1.6-2.2v2.2z"/><path class="a" d="m142.5 39.1v-4.1h3.1v0.9h-1.9v0.7h1.7v0.9h-1.7v0.7h1.9v0.9zm1-4.4l0.6-1.3h0.9l-0.6 1.3z"/><path class="a" d="m146.7 39.1v-4.1h2.1c0.3 0 0.6 0 0.8 0.2 0.2 0.1 0.4 0.3 0.5 0.6 0.1 0.2 0.2 0.5 0.2 0.8 0 0.3 0 0.6-0.2 0.8-0.1 0.2-0.3 0.4-0.5 0.5-0.2 0.1-0.5 0.2-0.8 0.2h-0.9v1.1h-1.2zm1.2-2h0.6c0.2 0 0.3 0 0.4-0.2 0-0.1 0.1-0.2 0.1-0.4 0-0.2 0-0.3-0.1-0.4-0.1-0.1-0.2-0.2-0.4-0.2h-0.7v1.2z"/><path class="a" d="m151.2 39.1v-4.1h3.1v0.9h-1.9v0.7h1.7v0.9h-1.7v0.7h1.9v0.9z"/><path class="a" d="m157.5 39.2c-0.7 0-1.3-0.2-1.7-0.5-0.4-0.4-0.6-0.9-0.6-1.6 0-0.7 0.2-1.2 0.6-1.6q0.6-0.6 1.8-0.6c0.8 0 0.5 0 0.7 0 0.2 0 0.4 0 0.6 0.1v1c-0.2 0-0.4-0.1-0.6-0.1q-0.3 0-0.6 0c-0.4 0-0.7 0-0.9 0.3q-0.3 0.3-0.3 0.9c0 0.4 0 0.7 0.3 0.8 0.2 0.2 0.4 0.3 0.8 0.3 0.4 0 0.2 0 0.3 0 0 0 0.2 0 0.3 0v-0.6h-0.8v-0.7h1.8v2.1c-0.2 0-0.4 0.2-0.6 0.3-0.3 0-0.6 0.1-1 0.1z"/><path class="a" d="m160.2 39.1v-4.1h3.1v0.9h-1.9v0.7h1.7v0.9h-1.7v0.7h1.9v0.9zm1-4.4l0.6-1.3h0.9l-0.6 1.3z"/><path class="a" d="m165.8 39.2c-0.3 0-0.5 0-0.8 0-0.2 0-0.5-0.1-0.6-0.2v-1c0.2 0 0.4 0.2 0.6 0.2 0.2 0 0.5 0 0.7 0 0.2 0 0.4 0 0.5 0 0.1 0 0.2-0.1 0.2-0.2 0-0.1 0-0.2 0-0.2 0 0-0.2 0-0.3-0.1-0.1-0.1-0.3 0-0.5-0.2-0.3 0-0.5-0.2-0.7-0.3-0.2-0.1-0.3-0.2-0.4-0.4 0-0.2-0.1-0.3-0.1-0.6 0-0.4 0.1-0.7 0.4-0.9 0.3-0.2 0.7-0.3 1.3-0.3 0.6 0 0.5 0 0.7 0 0.2 0 0.4 0 0.6 0.1v1c-0.2 0-0.4-0.1-0.6-0.2-0.2 0-0.4 0-0.5 0-0.1 0-0.3 0-0.5 0-0.1 0-0.2 0.1-0.2 0.2 0 0.1 0 0.2 0.2 0.2 0.1 0 0.3 0.1 0.6 0.2 0.3 0 0.6 0.2 0.8 0.3 0.2 0.1 0.3 0.3 0.4 0.4 0.1 0.1 0 0.4 0 0.6 0 0.4-0.1 0.7-0.4 0.9-0.3 0.2-0.7 0.3-1.3 0.3z"/><path class="a" d="m168.4 39.1v-0.6l1.8-2.6h-1.7v-0.9h3.3v0.6l-1.8 2.6h1.8v0.9z"/><path class="a" d="m174.2 39.2c-0.3 0-0.5 0-0.8 0-0.2 0-0.5-0.1-0.6-0.2v-1c0.2 0 0.4 0.2 0.6 0.2 0.2 0 0.5 0 0.7 0 0.2 0 0.4 0 0.5 0 0.1 0 0.2-0.1 0.2-0.2 0-0.1 0-0.2 0-0.2 0 0-0.2 0-0.3-0.1-0.1-0.1-0.3 0-0.5-0.2-0.3 0-0.5-0.2-0.7-0.3-0.2-0.1-0.3-0.2-0.4-0.4 0-0.2-0.1-0.3-0.1-0.6 0-0.4 0.1-0.7 0.4-0.9 0.3-0.2 0.7-0.3 1.3-0.3 0.6 0 0.5 0 0.7 0 0.2 0 0.4 0 0.6 0.1v1c-0.2 0-0.4-0.1-0.6-0.2-0.2 0-0.4 0-0.5 0-0.1 0-0.3 0-0.5 0-0.1 0-0.2 0.1-0.2 0.2 0 0.1 0 0.2 0.2 0.2 0.1 0 0.3 0.1 0.6 0.2 0.3 0 0.6 0.2 0.8 0.3 0.2 0.1 0.3 0.3 0.4 0.4 0.1 0.1 0 0.4 0 0.6 0 0.4-0.1 0.7-0.4 0.9-0.3 0.2-0.7 0.3-1.3 0.3z"/><path class="a" d="m177.1 39.1v-4.1h3.1v0.9h-1.9v0.7h1.7v0.9h-1.7v0.7h1.9v0.9zm1-4.4l0.6-1.3h0.9l-0.6 1.3z"/><path class="a" d="m183.3 39.2c-0.7 0-1.3-0.2-1.7-0.5-0.4-0.4-0.6-0.9-0.6-1.6 0-0.7 0.2-1.2 0.6-1.6q0.6-0.6 1.8-0.6c0.8 0 0.5 0 0.7 0 0.2 0 0.4 0 0.6 0.1v1c-0.2 0-0.4-0.1-0.6-0.1q-0.3 0-0.6 0c-0.4 0-0.7 0-0.9 0.3q-0.3 0.3-0.3 0.9c0 0.4 0 0.7 0.3 0.8 0.2 0.2 0.4 0.3 0.8 0.3 0.4 0 0.2 0 0.3 0 0 0 0.2 0 0.3 0v-0.6h-0.8v-0.7h1.8v2.1c-0.2 0-0.4 0.2-0.6 0.3-0.3 0-0.6 0.1-1 0.1z"/><path class="a" d="m188 39.2c-0.4 0-0.7 0-1-0.2-0.3-0.1-0.5-0.3-0.7-0.6q-0.3-0.3-0.3-0.9v-2.5h1.2v2.4c0 0.5 0.3 0.8 0.8 0.8 0.5 0 0.4 0 0.6-0.2 0.1-0.1 0.2-0.3 0.2-0.6v-2.4h1.2v2.5c0 0.4 0 0.7-0.2 0.9-0.2 0.2-0.4 0.4-0.7 0.6-0.3 0.1-0.6 0.2-1 0.2zm-1.2-4.7v-0.8h0.8v0.8zm1.4 0v-0.8h0.8v0.8z"/><path class="a" d="m193.2 39.2c-0.7 0-1.3-0.2-1.7-0.5-0.4-0.4-0.6-0.9-0.6-1.6 0-0.7 0.2-1.2 0.6-1.6q0.6-0.6 1.8-0.6c0.8 0 0.5 0 0.7 0 0.2 0 0.4 0 0.6 0.1v1c-0.2 0-0.4-0.1-0.6-0.1q-0.3 0-0.6 0c-0.4 0-0.7 0-0.9 0.3q-0.3 0.3-0.3 0.9c0 0.4 0 0.7 0.3 0.8 0.2 0.2 0.4 0.3 0.8 0.3 0.4 0 0.2 0 0.3 0 0 0 0.2 0 0.3 0v-0.6h-0.8v-0.7h1.8v2.1c-0.2 0-0.4 0.2-0.6 0.3-0.3 0-0.6 0.1-1 0.1z"/><path class="a" d="m197.1 39.1v-1.5l-1.5-2.6h1.3l0.8 1.6 0.8-1.6h1.3l-1.5 2.6v1.5z"/><path class="a" d="m202 35v4.1h-1.2v-4.1z"/><path class="a" d="m105.3 46.8v-4.1h3.1v0.9h-1.9v0.7h1.7v0.9h-1.7v0.7h1.9v0.9zm1-4.4l0.6-1.3h0.9l-0.6 1.3z"/><path class="a" d="m110.5 46.9c-0.3 0-0.5 0-0.8 0-0.2 0-0.5-0.1-0.6-0.2v-1c0.2 0 0.4 0.2 0.6 0.2 0.2 0 0.5 0 0.7 0 0.2 0 0.4 0 0.5 0 0.1 0 0.2-0.1 0.2-0.2 0-0.1 0-0.2 0-0.2 0 0-0.2 0-0.3-0.1-0.1-0.1-0.3 0-0.5-0.2-0.3 0-0.5-0.2-0.7-0.3-0.2-0.1-0.3-0.2-0.4-0.4 0-0.2-0.1-0.3-0.1-0.6 0-0.4 0.1-0.7 0.4-0.9 0.3-0.2 0.7-0.3 1.3-0.3 0.6 0 0.5 0 0.7 0 0.2 0 0.4 0 0.6 0.1v1c-0.2 0-0.4-0.1-0.6-0.2-0.2 0-0.4 0-0.5 0-0.1 0-0.3 0-0.5 0-0.1 0-0.2 0.1-0.2 0.2 0 0.1 0 0.2 0.2 0.2 0.1 0 0.3 0.1 0.6 0.2 0.3 0 0.6 0.2 0.8 0.3 0.2 0.1 0.3 0.3 0.4 0.4 0.1 0.1 0 0.4 0 0.6 0 0.4-0.1 0.7-0.4 0.9-0.3 0.2-0.7 0.3-1.3 0.3z"/><path class="a" d="m116.2 46.9c-0.7 0-1.3-0.2-1.7-0.5-0.4-0.4-0.6-0.9-0.6-1.6 0-0.7 0.2-1.2 0.6-1.6q0.6-0.6 1.8-0.6c0.8 0 0.5 0 0.7 0 0.2 0 0.4 0 0.6 0.1v1c-0.2 0-0.4-0.1-0.6-0.1q-0.3 0-0.6 0c-0.4 0-0.7 0-0.9 0.3q-0.3 0.3-0.3 0.9c0 0.4 0 0.7 0.3 0.8 0.2 0.2 0.4 0.3 0.8 0.3 0.4 0 0.2 0 0.3 0 0 0 0.2 0 0.3 0v-0.6h-0.8v-0.7h1.8v2.1c-0.2 0-0.4 0.2-0.6 0.3-0.3 0-0.6 0.1-1 0.1z"/><path class="a" d="m119.5 46.8v-1.5l-1.5-2.6h1.3l0.8 1.6 0.8-1.6h1.3l-1.5 2.6v1.5z"/><path class="a" d="m124.2 46.9c-0.7 0-1.2-0.2-1.6-0.5-0.4-0.3-0.5-0.9-0.5-1.6 0-0.7 0-0.9 0.2-1.2 0.2-0.3 0.4-0.5 0.7-0.7 0.3-0.2 0.7-0.2 1.2-0.2 0.5 0 0.8 0 1.2 0.2 0.4 0.2 0.6 0.4 0.7 0.7 0.1 0.3 0.2 0.7 0.2 1.2 0 0.7-0.2 1.3-0.5 1.6-0.4 0.3-0.9 0.5-1.6 0.5zm0-1c0.3 0 0.5 0 0.7-0.3 0.1-0.2 0.2-0.5 0.2-0.8 0-0.3 0-0.7-0.2-0.9-0.1-0.2-0.4-0.3-0.7-0.3-0.3 0-0.5 0-0.7 0.3-0.1 0.2-0.2 0.5-0.2 0.9 0 0.4 0 0.7 0.2 0.8 0.1 0.2 0.4 0.3 0.7 0.3zm-0.5-3.5l0.6-1.3h0.9l-0.6 1.3z"/><path class="a" d="m129 46.9c-0.7 0-1.3-0.2-1.7-0.5-0.4-0.4-0.6-0.9-0.6-1.6 0-0.7 0.2-1.2 0.6-1.6q0.6-0.6 1.8-0.6c0.8 0 0.5 0 0.7 0 0.2 0 0.4 0 0.6 0.1v1c-0.2 0-0.4-0.1-0.6-0.1q-0.3 0-0.6 0c-0.4 0-0.7 0-0.9 0.3q-0.3 0.3-0.3 0.9c0 0.4 0 0.7 0.3 0.8 0.2 0.2 0.4 0.3 0.8 0.3 0.4 0 0.2 0 0.3 0 0 0 0.2 0 0.3 0v-0.6h-0.8v-0.7h1.8v2.1c-0.2 0-0.4 0.2-0.6 0.3-0.3 0-0.6 0.1-1 0.1z"/><path class="a" d="m132.4 46.8v-1.5l-1.5-2.6h1.3l0.8 1.6 0.8-1.6h1.3l-1.5 2.6v1.5z"/><path class="a" d="m136.7 46.9c-0.3 0-0.5 0-0.8 0-0.2 0-0.5-0.1-0.6-0.2v-1c0.2 0 0.4 0.2 0.6 0.2 0.2 0 0.5 0 0.7 0 0.2 0 0.4 0 0.5 0 0.1 0 0.2-0.1 0.2-0.2 0-0.1 0-0.2 0-0.2 0 0-0.2 0-0.3-0.1-0.1-0.1-0.3 0-0.5-0.2-0.3 0-0.5-0.2-0.7-0.3-0.2-0.1-0.3-0.2-0.4-0.4 0-0.2-0.1-0.3-0.1-0.6 0-0.4 0.1-0.7 0.4-0.9 0.3-0.2 0.7-0.3 1.3-0.3 0.6 0 0.5 0 0.7 0 0.2 0 0.4 0 0.6 0.1v1c-0.2 0-0.4-0.1-0.6-0.2-0.2 0-0.4 0-0.5 0-0.1 0-0.3 0-0.5 0-0.1 0-0.2 0.1-0.2 0.2 0 0.1 0 0.2 0.2 0.2 0.1 0 0.3 0.1 0.6 0.2 0.3 0 0.6 0.2 0.8 0.3 0.2 0.1 0.3 0.3 0.4 0.4 0.1 0.1 0 0.4 0 0.6 0 0.4-0.1 0.7-0.4 0.9-0.3 0.2-0.7 0.3-1.3 0.3z"/><path class="a" d="m138.9 46.8v-0.6l1.8-2.6h-1.7v-0.9h3.3v0.6l-1.8 2.6h1.8v0.9z"/><path class="a" d="m142.9 46.8v-4.1h3.1v0.9h-1.9v0.7h1.7v0.9h-1.7v0.7h1.9v0.9z"/><path class="a" d="m146.7 46.8v-4.1h2.2c0.3 0 0.6 0 0.8 0.2 0.2 0.2 0.4 0.3 0.5 0.5 0.1 0.2 0.2 0.5 0.2 0.8 0 0.3 0 0.5-0.2 0.7-0.1 0.2-0.3 0.4-0.6 0.5 0 0 0 0 0.1 0.1 0.1 0.1 0 0.1 0.1 0.2l0.5 1.1h-1.3l-0.4-1c0 0 0-0.1-0.1-0.2 0 0-0.1 0-0.2 0h-0.3v1.2h-1.2zm1.2-2.1h0.6c0.2 0 0.3 0 0.4-0.1 0 0 0.1-0.2 0.1-0.4 0-0.4-0.2-0.5-0.5-0.5h-0.7v1.1z"/><path class="a" d="m150.9 46.8v-4.1h3.1v0.9h-1.9v0.7h1.7v0.9h-1.7v0.7h1.9v0.9zm1-4.4l0.6-1.3h0.9l-0.6 1.3z"/><path class="a" d="m156.1 46.9c-0.3 0-0.5 0-0.8 0-0.2 0-0.5-0.1-0.6-0.2v-1c0.2 0 0.4 0.2 0.6 0.2 0.2 0 0.5 0 0.7 0 0.2 0 0.4 0 0.5 0 0.1 0 0.2-0.1 0.2-0.2 0-0.1 0-0.2 0-0.2 0 0-0.2 0-0.3-0.1-0.1-0.1-0.3 0-0.5-0.2-0.3 0-0.5-0.2-0.7-0.3-0.2-0.1-0.3-0.2-0.4-0.4 0-0.2-0.1-0.3-0.1-0.6 0-0.4 0.1-0.7 0.4-0.9 0.3-0.2 0.7-0.3 1.3-0.3 0.6 0 0.5 0 0.7 0 0.2 0 0.4 0 0.6 0.1v1c-0.2 0-0.4-0.1-0.6-0.2-0.2 0-0.4 0-0.5 0-0.1 0-0.3 0-0.5 0-0.1 0-0.2 0.1-0.2 0.2 0 0.1 0 0.2 0.2 0.2 0.1 0 0.3 0.1 0.6 0.2 0.3 0 0.6 0.2 0.8 0.3 0.2 0.1 0.3 0.3 0.4 0.4 0.1 0.1 0 0.4 0 0.6 0 0.4-0.1 0.7-0.4 0.9-0.3 0.2-0.7 0.3-1.3 0.3z"/><path class="a" d="m158.2 46.8v-0.6l1.8-2.6h-1.7v-0.9h3.3v0.6l-1.8 2.6h1.8v0.9z"/><path class="a" d="m162.3 46.8v-4.1h3.1v0.9h-1.9v0.7h1.7v0.9h-1.7v0.7h1.9v0.9z"/><path class="a" d="m166.9 46.8v-3.2h-1.2v-0.9h3.5v0.9h-1.2v3.2h-1.2z"/><path class="a" d="m171 42.7v4.1h-1.2v-4.1z"/><path class="a" d="m172.9 46.8v-4.1h1.2v1.5l1.3-1.5h1.4l-1.5 1.7 1.6 2.4h-1.3l-1-1.7-0.4 0.5v1.2h-1.2z"/><path class="a" d="m179.2 46.9c-0.7 0-1.2-0.2-1.6-0.5-0.4-0.3-0.5-0.9-0.5-1.6 0-0.7 0-0.9 0.2-1.2 0.2-0.3 0.4-0.5 0.7-0.7 0.3-0.2 0.7-0.2 1.2-0.2 0.5 0 0.8 0 1.2 0.2 0.4 0.2 0.6 0.4 0.7 0.7 0.1 0.3 0.2 0.7 0.2 1.2 0 0.7-0.2 1.3-0.5 1.6-0.4 0.3-0.9 0.5-1.6 0.5zm-1.1-4.7v-0.8h0.8v0.8zm1.1 3.7c0.3 0 0.5 0 0.7-0.3 0.1-0.2 0.2-0.5 0.2-0.8 0-0.3 0-0.7-0.2-0.9-0.1-0.2-0.4-0.3-0.7-0.3-0.3 0-0.5 0-0.7 0.3-0.1 0.2-0.2 0.5-0.2 0.9 0 0.4 0 0.7 0.2 0.8 0.1 0.2 0.4 0.3 0.7 0.3zm0.3-3.7v-0.8h0.8v0.8z"/><path class="a" d="m181.7 46.8v-0.6l1.8-2.6h-1.7v-0.9h3.3v0.6l-1.8 2.6h1.8v0.9z"/><path class="a" d="m185.7 46.8v-4.1h2.1c0.3 0 0.6 0 0.8 0.2 0.2 0.1 0.4 0.3 0.5 0.6 0.1 0.2 0.2 0.5 0.2 0.8 0 0.3 0 0.6-0.2 0.8-0.1 0.2-0.3 0.4-0.5 0.5-0.2 0.1-0.5 0.2-0.8 0.2h-0.9v1.1h-1.2zm1.2-2h0.6c0.2 0 0.3 0 0.4-0.2 0-0.1 0.1-0.2 0.1-0.4 0-0.2 0-0.3-0.1-0.4-0.1-0.1-0.2-0.2-0.4-0.2h-0.7v1.2z"/><path class="a" d="m191.8 46.9c-0.7 0-1.2-0.2-1.6-0.5-0.4-0.3-0.5-0.9-0.5-1.6 0-0.7 0-0.9 0.2-1.2 0.2-0.3 0.4-0.5 0.7-0.7 0.3-0.2 0.7-0.2 1.2-0.2 0.5 0 0.8 0 1.2 0.2 0.4 0.2 0.6 0.4 0.7 0.7 0.1 0.3 0.2 0.7 0.2 1.2 0 0.7-0.2 1.3-0.5 1.6-0.4 0.3-0.9 0.5-1.6 0.5zm0-1c0.3 0 0.5 0 0.7-0.3 0.1-0.2 0.2-0.5 0.2-0.8 0-0.3 0-0.7-0.2-0.9-0.1-0.2-0.4-0.3-0.7-0.3-0.3 0-0.5 0-0.7 0.3-0.1 0.2-0.2 0.5-0.2 0.9 0 0.4 0 0.7 0.2 0.8 0.1 0.2 0.4 0.3 0.7 0.3z"/><path class="a" d="m194.6 46.8v-4.1h1l1.6 2.2v-2.2h1.2v4.1h-1l-1.6-2.2v2.2z"/><path class="a" d="m200 46.8v-3.2h-1.2v-0.9h3.5v0.9h-1.2v3.2h-1.2z"/></svg>